<svg xmlns="http://www.w3.org/2000/svg" viewBox="-135 228 610 110">
  <path fill="#E51075" d="M-131.4 233.5h22.8v83.4h-22.8zm81.2 38.5h.3v-38.6h21.8v83.4h-21l-26.2-43.3h-.3v43.3h-21.7v-83.4h24l23.1 38.6zm78.9 3.2c0-20.9-5.9-21.5-15.6-21.5h-7v43.9h8c8.9 0 14.6-1.4 14.6-22.4zm-45.4-41.7h28.3c27.2 0 40.2 7.2 40.2 41.6 0 35.1-12.8 41.7-39.9 41.7h-28.7zm76.7 0H82.8v83.4H60zm211.3 64.6c12.4 0 14.2-8.4 14.2-22.2 0-13.6-1.7-22.1-14.2-22.1-12.6 0-14.3 8.4-14.3 22 0 13.9 1.8 22.3 14.3 22.3zm0-65.7c31.8 0 37.3 20.4 37.3 42.8s-5.6 42.6-37.3 42.6c-31.8 0-37.4-20.4-37.4-42.6s5.6-42.8 37.4-42.8zm160 65.7c12.4 0 14.2-8.4 14.2-22.2 0-13.6-1.7-22.1-14.2-22.1-12.6 0-14.3 8.4-14.3 22 0 13.9 1.7 22.3 14.3 22.3zm0-65.7c31.8 0 37.3 20.4 37.3 42.8s-5.6 42.6-37.3 42.6c-31.8 0-37.5-20.4-37.5-42.6s5.7-42.8 37.5-42.8zm-241.2 52.3 2.5-18.1h33.1v50.3h-21c-3.7.7-7.9 1-12.9 1-28 0-34.9-17.4-34.9-42.6 0-28.9 9.5-42.8 38.9-42.8 10.6 0 20.1 2.7 26.5 6.8l-12.2 18.6c-3.9-2.1-8.6-3.8-15.3-3.8-9 0-15 2.4-15 21.9 0 18.8 3.6 23.5 14.1 23.5 11.2 0 10.9-4.1 10.9-13.3v-1.5zm160 0 2.5-18.1h33.1v50.3h-21c-3.7.7-7.9 1-12.9 1-28 0-34.9-17.4-34.9-42.6 0-28.9 9.5-42.8 38.9-42.8 10.6 0 20 2.7 26.5 6.8l-12.2 18.6c-3.9-2.1-8.6-3.8-15.3-3.8-9 0-15 2.4-15 21.9 0 18.8 3.6 23.5 14.1 23.5 11.2 0 10.9-4.1 10.9-13.3v-1.5zm-199.2-30.9h-34.3v10.9h25.3l-2.8 19.8h-22.6V297h34.3v19.8H94.2v-83.4h56.7z"/>
</svg>
